# xmcd CD database file
#
# Track frame offsets:
#	150
#	13367
#	26667
#	39498
#	53918
#	64186
#	78014
#	90822
#	102455
#	119731
#
# Disc length: 1776 seconds
#
# Revision: 0
# Processed by: cddbd v1.5.2PL0 Copyright (c) Steve Scherf et al.
# Submitted via: CDex 1.70beta2
#
DISCID=7c06ee0a
DTITLE=Pat DiNizio - Pat DiNizio
DYEAR=2007
DGENRE=Blues
TTITLE0=Since You Went Away
TTITLE1=Night Without Sleep
TTITLE2=Wonderful
TTITLE3=Any Other Day
TTITLE4=I Need You
TTITLE5=Dear World
TTITLE6=Love
TTITLE7=Sometimes
TTITLE8=You Said
TTITLE9=Don't Look Now
EXTD=YEAR: 2007
EXTT0=
EXTT1=
EXTT2=
EXTT3=
EXTT4=
EXTT5=
EXTT6=
EXTT7=
EXTT8=
EXTT9=
PLAYORDER=
